<svg xmlns="http://www.w3.org/2000/svg" viewBox="136 0 185 216" width="320" height="370">
  <path d="M162.07 155.86l-2-.67c-3.07-1-6.15-2-9.21-3a15.1 15.1 0 01-5.79-3.53 44.84 44.84 0 00-9.28-6.94 34.81 34.81 0 01-11.87-11.32c-1.78-2.69-3.39-5.49-5.15-8.2-1.33-2-1.25-4.34-1.3-6.61 0-1.28.7-1.72 2-1.79 2.79-.14 5.6-.19 8.36-.59 6.76-1 13.48-2.23 20.24-3.2a40 40 0 017.5-.28c3.83.18 7.65.61 11.47.95a25.34 25.34 0 0116.12 7.09c.63.61 1.4 1.09 2 1.75 3.87 4.45 8.55 8.16 11.89 13.08a23.54 23.54 0 011.63 2.93 16.53 16.53 0 008.78 8.59c2.12.86 4 2.17 6.09 3.23.84.44 1.84.61 2.62 1.12a64.85 64.85 0 016.75 4.71c6.36 5.43 11.28 12.06 15.7 19.11 3 4.74 6.19 9.32 9.25 14 1 1.55 1.89 3.19 3 4.72-.12-1.32-.25-2.65-.35-4-.19-2.51-.47-5-.54-7.53q-.32-11.51-.49-23a18.28 18.28 0 01.36-3.93 19.85 19.85 0 00-.07-8.35c-1.67-7.48-5.76-12-13.39-13.11-4.37-.63-8.84-.64-13.27-.84a17.6 17.6 0 01-7.79-2.12c-3.49-1.91-7.24-3.45-10.47-5.74-5.51-3.9-10-8.87-11.66-15.63-1.35-5.38-2.64-10.81-1.95-16.47.25-2.05.34-4.13.51-6.19s1.46-3.68 2.9-5.1a2.07 2.07 0 012.83.25c3.41 3.84 8.09 5.27 12.73 6.78 1.37.44 2.75.83 4.13 1.25l1.44.45a5.32 5.32 0 000-.85 12.72 12.72 0 011.93-10.29q5-7 10-14.06c.95-1.33 1.86-2.69 2.86-4a4.17 4.17 0 015.59-.8 13.6 13.6 0 012.63 2.59 38.27 38.27 0 015.84 11.36c1 3.15 2.2 6.26 3.42 9.34a34.34 34.34 0 011.55 19.35 61.26 61.26 0 01-4.41 14.53 26.72 26.72 0 00-1.05 3.31 4.1 4.1 0 01-.47 1.35c-1.8 2.22-.8 4.45-.11 6.68.28.91.57 1.81.87 2.72a3.78 3.78 0 00.39.86q2.41 3.72 4.85 7.42c.14.22.3.43.31.45 1.63-5.59 3.38-11.22 4.88-16.92 1.22-4.63 2.15-9.34 3.16-14a14.9 14.9 0 00-1.81-10.3A39.64 39.64 0 01252 79.14c-.4-10.06 2.46-19.22 7.09-28 2.54-4.81 6.38-8.48 10.24-12.08s8.14-7.29 11.67-11.46c1.48-1.73 3.14-3.31 4.77-4.89a5.71 5.71 0 014.4-1.71 3.48 3.48 0 013 1.68c1 1.7 2.1 3.4 3.21 5.06a32.34 32.34 0 002.47 3.26 10.07 10.07 0 012.32 4.79 74.79 74.79 0 01.27 25.67 40.53 40.53 0 01-3.71 11.24c-.73 1.56-1.28 3.2-2.09 4.71a29.17 29.17 0 01-2.9 4.65 111.6 111.6 0 01-7.65 8.9 67.15 67.15 0 01-7.88 6.6c-3.41 2.51-7 4.79-10.51 7.15a8.56 8.56 0 00-3.28 4.16c-1.52 3.91-3.2 7.76-4.64 11.7a47.59 47.59 0 00-1.51 6c-.43 1.91-.72 3.85-1.16 5.76-1 4.18-.7 8.43-.77 12.67v4.34a1.1 1.1 0 00.44-.1c3.65-4.76 5.94-10 5.83-16.14a8.5 8.5 0 01.79-3.82c2.32-4.64 4.79-9.21 7.26-13.78 1.1-2 2.36-4 3.53-6a14.06 14.06 0 019.21-7.08c5.45-1.28 10.82-2.84 16.26-4.17 2.58-.63 3.9.42 3.87 3.05a10.09 10.09 0 01-.75 4.31c-1.66 3.27-2.35 6.79-3.17 10.29a25.84 25.84 0 01-9.44 15.1c-2.53 2-5.15 3.79-7.71 5.7a60.87 60.87 0 01-13.91 8.16 14.18 14.18 0 01-2.61.82c-2.16.39-3.62 1.79-5 3.29a20.36 20.36 0 00-5.73 14.09 136.88 136.88 0 00.73 17.12c.4 3.69.34 7.44.81 11.12a79.66 79.66 0 007.36 24.11c3.11 6.53 6.12 13.11 9.17 19.67a4.41 4.41 0 01.44 1.69c-1.26-2.58-2.53-5.15-3.79-7.74-3.11-6.4-6.47-12.69-9.25-19.23a67.92 67.92 0 01-5.34-22.8c-.26-4.43-.82-8.83-1.2-13.25a62.43 62.43 0 01.58-16 16.62 16.62 0 012.39-5.69c1.7-2.74 3.54-5.46 6.7-6.83a9 9 0 011.46-.54 36.15 36.15 0 0013.3-6.68 40.51 40.51 0 013.75-2.59c8.7-5.12 14.09-12.69 16.79-22.32.73-2.6 1.7-5.14 2.56-7.7a8.57 8.57 0 00.59-4.58c-.26-1.23-.78-1.78-2-1.52-3.16.68-6.3 1.47-9.45 2.24-1 .26-2.06.65-3.11.86-6.72 1.31-11.18 5.65-14.58 11.19-2.88 4.7-5.53 9.55-8.07 14.44a13.34 13.34 0 00-1.3 5.15c-.38 5.67-1.67 11-5.35 15.48-.91 1.11-1.67 2.34-2.54 3.59l-1.21-.37c.83-3.52.53-7.08.48-10.61-.07-4.21 1.06-8.23 1.5-12.35.59-5.51 2.66-10.5 4.81-15.5a43.88 43.88 0 001.78-4.83 9.13 9.13 0 014.07-5.13c4.48-2.93 9.13-5.67 13.3-9 6.23-5 11.79-10.77 15.07-18.22a89.05 89.05 0 004.62-13.08 43.15 43.15 0 00.88-9.38 74.84 74.84 0 00-1.4-18.14 11.68 11.68 0 00-1.23-3.48c-1.66-2.83-3.43-5.58-5.24-8.32a3.34 3.34 0 00-5.28-.63 80.84 80.84 0 00-6 5.89 82.38 82.38 0 01-8.72 8.56c-1.68 1.41-3.25 3-4.86 4.46a25 25 0 00-4.73 6c-1.39 2.42-3.23 4.61-4.45 7.11a49.87 49.87 0 00-5 23c0 2.12.2 4.23.35 6.34a22.62 22.62 0 002.73 8.75c2.73 5.32 3.85 10.8 2.25 16.74-1.7 6.33-3.18 12.72-4.79 19.07-.76 3-1.57 5.94-2.42 8.89a10.7 10.7 0 01-1.06 1.9c-.57-1.06-.95-1.71-1.27-2.38a31.58 31.58 0 00-8.31-10.88 24.84 24.84 0 00-4.2-3A7 7 0 00233 123c-5.22.38-10.43.92-15.64 1.44a35.57 35.57 0 00-5.64 1c2.61 1 5.14 2.41 7.84 3a71.09 71.09 0 009.77.75c4.19.25 8.37.44 12.29 2.28a14.24 14.24 0 016.25 5.55 20.88 20.88 0 013.44 13c0 .52-.08 1-.17 1.55a63 63 0 00-.49 15.89c.32 4.26.15 8.56.43 12.82.26 4.11.78 8.2 1.26 12.29a12.23 12.23 0 00.78 2.49c.3.86.63 1.7.95 2.55l-.35.3a3.87 3.87 0 01-1.36-1.21c-1-3.3-3-6-4.8-8.8-4.73-7.51-9.72-14.86-14.66-22.22a65.9 65.9 0 00-12.75-13.45c-1.67-1.4-3.86-2.18-5.81-3.27-1.67-.93-3.31-1.9-5-2.82a15.34 15.34 0 00-2.29-1.05c-4.41-1.54-7-4.95-9.29-8.76a50.19 50.19 0 00-5.29-7.51c-2.86-3.22-6-6.2-9.16-9.15a26.17 26.17 0 00-12.45-6.6 82.47 82.47 0 00-16.8-1.69c-4-.05-8.11.75-12.14 1.32a188.69 188.69 0 01-22 2c-2 0-2 .23-2 2.2a16.54 16.54 0 003.32 8.86c1.34 1.94 2.77 3.82 4.24 5.66a42.35 42.35 0 0012.75 10.53 17 17 0 014.52 3.28 25.08 25.08 0 0012.3 7.31c4.61 1.33 9.28 2.58 14.1 2.66 2.86 0 5.74-.39 8.6-.59 1.75-.12 3.51-.26 5.27-.31a11.05 11.05 0 006.85-2.49c2.42-2 4.88-3.87 7.34-5.78a5.64 5.64 0 015-1c4.15 1 7.6 3.28 10.94 5.69 4.3 3.11 8.38 6.53 12.47 9.92a58.47 58.47 0 019.42 10.2 1.42 1.42 0 01.25.8 47 47 0 01-7.6-1.73l1.54 1c4.11 2.61 8.45 4.89 11.7 8.66a56.51 56.51 0 017.87 12 11 11 0 00.51 1.08c3.71 5.81 5.36 12.45 7.65 18.83.86 2.41 1.62 4.85 2.47 7.27 1.46 4.14 1.31 8.51 1.82 12.78a1.68 1.68 0 01-.2.48 6 6 0 01-.41-.93 56.2 56.2 0 01-1.29-6.09 48.72 48.72 0 00-2.86-11c-1.82-5.12-3.59-10.26-5.4-15.39a13 13 0 00-1-2.05c-2.19-3.86-4.29-7.77-6.64-11.53a27.07 27.07 0 00-8.47-9c-2.88-1.8-5.69-3.7-8.54-5.54-.6-.39-1.28-.66-1.91-1a7.79 7.79 0 00-8.59.35c-6.12 4-13 6-20 7.73a24.37 24.37 0 01-11.73 0 50.61 50.61 0 01-15-6.69c-2.31-1.44-4.57-2.95-6.77-4.55a14.14 14.14 0 01-2.88-2.85c-1.37-1.82-1-3.48.72-5a13.53 13.53 0 001.79-2.61zm80.73-28.66l.16-.12a15.16 15.16 0 01-.93-1.75c-1.79-4.71-3.49-9.44-5.32-14.13a41.46 41.46 0 00-6.59-11.64c-4.48-5.38-10.34-8.62-16.83-11-5.5-2.06-11.27-3.69-15.63-8.06-1.09-1.1-2.05-.87-3.13.27a8.47 8.47 0 00-2.06 5.23 51.31 51.31 0 001.53 19 29.51 29.51 0 0013.21 17.84 6.6 6.6 0 003.25 1c2.26 0 4.52-.27 6.78-.47 4.57-.41 9.17-.69 13.71-1.31a10.27 10.27 0 017.77 2c1.44.94 2.74 2.07 4.08 3.14zm-.89-8h.48a31.81 31.81 0 011.17-3.3 58.61 58.61 0 004.06-11.89c1.72-7.31 1.89-14.57-.46-21.78-1.26-3.87-2.58-7.73-4-11.55a33.13 33.13 0 00-2.7-5.68 34.11 34.11 0 00-4.24-5.61c-1.46-1.55-3.48-1.29-5 .27a11.33 11.33 0 00-1 1.22c-3.37 4.67-6.82 9.27-10.05 14-1.51 2.22-3.11 4.54-3.36 7.34-.14 1.62.11 3.27.12 4.9a1.82 1.82 0 001.3 1.88 34.56 34.56 0 014.27 2.18A36.22 36.22 0 01237.08 108a11.29 11.29 0 00.68 1.21 244.91 244.91 0 01.81-39.7 1.63 1.63 0 01.35.33c0 .23.07.47.1.71.42 2.88 0 5.72-.17 8.6-.31 5.62-.29 11.27-.33 16.9 0 4.87 0 9.74.05 14.61a2.52 2.52 0 00.15.93c1.04 2.57 2.12 5.1 3.19 7.64zm-18.54 48.36a2.15 2.15 0 00-.3-.43l-1.18-.59c-3.79-1.83-7.44-3.81-10.19-7.19-3.87-4.75-9.21-7.31-14.83-9.34a3.21 3.21 0 00-3.39.76c-3.12 2.57-6.47 4.6-10.78 4.58a48 48 0 00-7.75.7 39.93 39.93 0 01-10.61.27 2.26 2.26 0 00-1.61.64c-.69.7-1.09 1.7-1.8 2.38-1.41 1.34-1.54 2.8.25 4.3 2.29 1.92 4.73 3.66 7.18 5.39a37.09 37.09 0 0029.12 6.52 52.92 52.92 0 008.64-2.7c2.46-.91 4.83-2.05 7.21-3.16 1.3-.61 2.52-1.38 3.81-2a6.81 6.81 0 014.9-.46zm-26.94-19l1.75.67c5.13 2 9.94 4.56 13.65 8.81a20.76 20.76 0 004.14 4 68.39 68.39 0 0015.32 7.57c.57.19 1.18.26 2.13.46-.47-.63-.67-1-.93-1.25-2.12-2.28-4.1-4.72-6.42-6.77-4.13-3.64-8.43-7.09-12.74-10.51a44.06 44.06 0 00-5.05-3.19 14.46 14.46 0 00-5.21-2.36 6.23 6.23 0 00-6.64 2.63z" transform="translate(18.67 -21.02)" fill="#4c4c4c" />
  <path d="M191.79 138.95a26.74 26.74 0 01-8.35 1.66c-4.88.2-9.62-.76-14.36-1.76-2.66-.56-5.34-1.07-7.94-1.85-7.29-2.19-14.77-3.94-21.23-8.27a9.47 9.47 0 01-1.19-.81c-2.34-2.15-5.22-3.34-8.07-4.59a1.47 1.47 0 01-.67-.57c2.45.67 4.94 1.15 7 2.72a41.89 41.89 0 0015.61 7.62 19.09 19.09 0 012.06.65 118 118 0 0024.47 5.6 27.72 27.72 0 0011.54-.58 6.92 6.92 0 011-.15zM291.79 33a15.92 15.92 0 01.52 2.2 38.7 38.7 0 00.23 3.94c.9 4.39-.31 8.35-2.12 12.28-1.55 3.37-3 6.79-4.26 10.28a63.22 63.22 0 01-7.58 14.9c-2.7 4-5.27 8-7.93 12-.61.91-1.37 1.72-2.06 2.58l-.3-.2c.13-.23.24-.48.39-.7 1.27-2 2.57-3.95 3.83-5.94 2.76-4.35 5.66-8.62 8.22-13.09a80.36 80.36 0 003.93-8.72c1.37-3.23 2.66-6.5 4-9.75.94-2.29 2-4.53 2.76-6.88a14.86 14.86 0 00.37-4.5c0-2.78-.22-5.56-.34-8.34zM267.73 135.52c.21-.36.42-.72.65-1.07 3.29-5.19 7.44-9.68 11.57-14.2 1.51-1.65 3-3.33 4.33-5.11a30.48 30.48 0 016.13-6.36 29.87 29.87 0 003-2.89c.16-.16.35-.3.52-.44l.29.2a14.78 14.78 0 01-1.39 2c-1 1.06-2.17 2-3.22 3a25.59 25.59 0 00-3 3.22c-3.9 5.51-8.93 10-13.23 15.16-1.56 1.87-3 3.81-4.55 5.72l-.73.91zM230.45 120.81c-.32-.2-.65-.37-1-.59-4.17-3-8.32-6.08-12.5-9.09a44.76 44.76 0 01-11.26-11.68c-1.38-2.1-2.14-4.61-3.16-6.94a1.6 1.6 0 01.1-.73 1.53 1.53 0 01.66.33 14.14 14.14 0 011.07 2.14 30.57 30.57 0 008.67 11.91c3.43 3.08 7.43 5.52 11.07 8.38 2.31 1.83 4.42 3.92 6.62 5.89zM212.36 163.69l-2.09-.71c-3-1-6.05-2-9.09-3-3.91-1.26-7.84-.57-11.75 0s-7.56 1.19-11.35 1.75a17.37 17.37 0 01-3 .16 5.67 5.67 0 01-2.37-.6c1.14-.06 2.29 0 3.41-.21 2-.3 3.91-.79 5.88-1.08a139.12 139.12 0 0114-1.85c5.12-.23 9.87 1.67 14.37 4.06l2.15 1.16z" transform="translate(18.67 -21.02)" fill="#4c4c4c" />
</svg>
